<svg width="120" height="97" viewBox="0 0 120 97" fill="none" xmlns="http://www.w3.org/2000/svg">
<g clip-path="url(#clip0_110_14)">
<mask id="mask0_110_14" style="mask-type:luminance" maskUnits="userSpaceOnUse" x="0" y="0" width="120" height="97">
<path d="M119.996 0H0.0037384V96.2376H119.996V0Z" fill="white"/>
</mask>
<g mask="url(#mask0_110_14)">
<path d="M89.4729 35.0339C89.9003 34.6313 90.1126 34.1111 90.1126 33.468C90.1126 32.825 89.8976 32.2995 89.4729 31.8891C89.0455 31.4787 88.495 31.2748 87.8185 31.2748H84.654C84.5727 31.2748 84.5334 31.314 84.5334 31.3951V35.5149C84.5334 35.5959 84.5727 35.6351 84.654 35.6351H87.8185C88.495 35.6351 89.0455 35.4338 89.4729 35.0339ZM105.891 44.936C105.891 45.0171 105.862 45.085 105.807 45.1399C105.749 45.1975 105.681 45.2236 105.602 45.2236H102.776C102.695 45.2236 102.626 45.1948 102.571 45.1399C102.514 45.085 102.488 45.0145 102.488 44.936V28.6503C102.488 28.5692 102.516 28.5013 102.571 28.4464C102.626 28.3915 102.697 28.3627 102.776 28.3627H105.602C105.684 28.3627 105.752 28.3915 105.807 28.4464C105.862 28.5039 105.891 28.5719 105.891 28.6503V44.936ZM93.6416 45.0328C93.6416 45.1609 93.5524 45.2262 93.3768 45.2262H90.4063C90.2437 45.2262 90.131 45.153 90.068 45.0092L87.0477 38.3355C87.0163 38.2727 86.9665 38.2388 86.9035 38.2388H84.6566C84.5754 38.2388 84.5361 38.278 84.5361 38.359V44.936C84.5361 45.0171 84.5072 45.085 84.4521 45.1399C84.3945 45.1975 84.3263 45.2236 84.2477 45.2236H81.4213C81.3401 45.2236 81.2719 45.1948 81.2168 45.1399C81.1592 45.085 81.1329 45.0145 81.1329 44.936V28.6503C81.1329 28.5692 81.1618 28.5013 81.2168 28.4464C81.2719 28.3915 81.3427 28.3627 81.4213 28.3627H88.3324C89.3628 28.3627 90.2699 28.5719 91.0512 28.9901C91.8325 29.4084 92.4355 30.0018 92.8629 30.7729C93.2902 31.5441 93.5026 32.4355 93.5026 33.4471C93.5026 34.5398 93.23 35.4757 92.682 36.2547C92.134 37.0337 91.3685 37.5852 90.3853 37.9042C90.304 37.9355 90.2804 37.993 90.3119 38.0741L93.597 44.8916C93.6285 44.957 93.6442 45.004 93.6442 45.0354M72.5675 59.3161C72.5675 59.6298 72.4757 59.8782 72.2975 60.0559C72.1166 60.2363 71.8701 60.3252 71.5555 60.3252H60.9057C60.5911 60.3252 60.342 60.2363 60.1638 60.0559C59.9828 59.8782 59.8937 59.6298 59.8937 59.3161V42.2488C59.8937 42.024 59.781 41.9115 59.5581 41.9115H49.0447C48.8192 41.9115 48.7065 42.024 48.7065 42.2488V59.3161C48.7065 59.6298 48.6147 59.8782 48.4364 60.0559C48.2555 60.2363 48.0091 60.3252 47.6944 60.3252H37.0447C36.7301 60.3252 36.4836 60.2363 36.3027 60.0559C36.1218 59.8782 36.0327 59.6298 36.0327 59.3161V14.2885C36.0327 13.9748 36.1218 13.7291 36.3027 13.5487C36.481 13.3709 36.7301 13.2794 37.0447 13.2794H47.6944C48.0091 13.2794 48.2555 13.3709 48.4364 13.5487C48.6147 13.7291 48.7065 13.9748 48.7065 14.2885V30.752C48.7065 30.9768 48.8192 31.0892 49.0447 31.0892H59.5581C59.781 31.0892 59.8937 30.9768 59.8937 30.752V14.2885C59.8937 13.9748 59.9828 13.7291 60.1638 13.5487C60.342 13.3709 60.5911 13.2794 60.9057 13.2794H71.5555C71.8701 13.2794 72.1166 13.3709 72.2975 13.5487C72.4757 13.7291 72.5675 13.9748 72.5675 14.2885V59.3135V59.3161ZM27.3938 44.9387C27.3938 45.0197 27.365 45.0877 27.3099 45.1426C27.2522 45.2001 27.1841 45.2262 27.1054 45.2262H15.9418C15.8605 45.2262 15.7923 45.1975 15.7373 45.1426C15.6796 45.0877 15.6534 45.0171 15.6534 44.9387V28.6529C15.6534 28.5719 15.6822 28.5039 15.7373 28.449C15.7923 28.3941 15.8631 28.3653 15.9418 28.3653H27.1054C27.1867 28.3653 27.2549 28.3941 27.3099 28.449C27.365 28.5065 27.3938 28.5745 27.3938 28.6529V30.9899C27.3938 31.0709 27.365 31.1389 27.3099 31.1938C27.2549 31.2487 27.1841 31.2774 27.1054 31.2774H19.1797C19.0984 31.2774 19.0591 31.3166 19.0591 31.3977V35.1306C19.0591 35.2116 19.0984 35.2509 19.1797 35.2509H24.3735C24.4548 35.2509 24.5229 35.2796 24.578 35.3345C24.6331 35.392 24.6619 35.46 24.6619 35.5384V37.8754C24.6619 37.9564 24.6331 38.0244 24.578 38.0793C24.5203 38.1368 24.4521 38.1629 24.3735 38.1629H19.1797C19.0984 38.1629 19.0591 38.2022 19.0591 38.2832V42.186C19.0591 42.2671 19.0984 42.3063 19.1797 42.3063H27.1054C27.1867 42.3063 27.2549 42.335 27.3099 42.3899C27.365 42.4474 27.3938 42.5154 27.3938 42.5938V44.9308V44.9387ZM120.004 31.2513C119.149 21.3152 118.585 11.3372 117.783 1.40103C112.309 1.618 106.837 1.28078 101.376 0.867758C95.4244 0.844231 89.4624 1.08473 83.5109 1.12132C75.8343 1.02199 68.1996 -0.188333 60.5151 0.0312503C54.3643 0.175025 48.3551 0.572366 42.2385 0.692614C37.7368 1.05336 33.2562 0.74751 28.7939 0.750124C27.2837 0.857302 25.7657 0.397222 24.2817 0.750124C21.2771 0.214236 17.8793 0.520085 14.8275 0.410293C9.88016 0.339713 4.94067 0.0443207 0.00381613 0.0887602C0.5911 12.1083 0.939801 24.1593 2.94286 36.0351C2.83537 37.5957 2.17729 39.1694 2.24284 40.8084C2.46569 43.7806 2.11437 46.7424 2.21924 49.7277C1.7814 56.4354 2.49191 63.0752 3.36497 69.7333C21.5157 70.5619 39.6586 72.4023 57.8539 71.7723C77.9553 71.239 98.0305 69.383 118.134 71.124C118.95 57.8549 119.361 44.5282 119.996 31.2435" fill="#472C56"/>
<path d="M114.412 91.6499C114.697 91.6499 114.936 91.7205 115.127 91.8643C115.316 92.008 115.445 92.2067 115.51 92.4655C115.539 92.5596 115.56 92.6955 115.576 92.8733C115.576 92.9099 115.557 92.9256 115.523 92.9256H113.342C113.3 92.9256 113.284 92.9073 113.3 92.8733C113.313 92.6799 113.342 92.523 113.386 92.4028C113.457 92.1675 113.581 91.9845 113.756 91.8512C113.932 91.7179 114.152 91.6525 114.417 91.6525M116.803 92.7896C116.624 91.3179 115.827 90.5807 114.417 90.5807C113.858 90.5807 113.379 90.7245 112.983 91.0147C112.584 91.3048 112.314 91.6996 112.173 92.1989C112.086 92.455 112.044 92.7923 112.044 93.2053C112.044 93.8902 112.125 94.4261 112.291 94.813C112.469 95.2626 112.755 95.6129 113.145 95.8638C113.536 96.1148 114.01 96.2376 114.569 96.2376C115.02 96.2376 115.432 96.1514 115.799 95.9815C116.168 95.8089 116.465 95.5658 116.685 95.2521C116.727 95.1868 116.716 95.1319 116.653 95.0796L115.987 94.5332C115.966 94.5123 115.94 94.5019 115.911 94.5019C115.869 94.5019 115.833 94.5228 115.804 94.5672C115.518 94.9672 115.13 95.1685 114.642 95.1685C113.976 95.1606 113.557 94.8992 113.384 94.3869C113.342 94.3006 113.308 94.1411 113.287 93.9059C113.287 93.8693 113.305 93.8536 113.342 93.8536H116.706C116.792 93.8536 116.834 93.8118 116.834 93.7255L116.845 93.3935C116.845 93.1713 116.832 92.9726 116.803 92.7923M110.794 90.6069C110.256 90.6069 109.837 90.8395 109.535 91.3048C109.522 91.3258 109.509 91.3362 109.498 91.331C109.488 91.3284 109.483 91.3127 109.483 91.2839V90.8029C109.483 90.7663 109.47 90.7376 109.446 90.7114C109.42 90.6853 109.391 90.6748 109.354 90.6748H108.366C108.329 90.6748 108.3 90.6879 108.274 90.7114C108.248 90.7376 108.237 90.7663 108.237 90.8029V96.0233C108.237 96.0599 108.25 96.0886 108.274 96.1148C108.3 96.1409 108.329 96.1514 108.366 96.1514H109.354C109.391 96.1514 109.42 96.1383 109.446 96.1148C109.472 96.0886 109.483 96.0599 109.483 96.0233V92.9909C109.483 92.6772 109.582 92.4211 109.784 92.225C109.986 92.0289 110.235 91.9244 110.537 91.9087C110.586 91.9009 110.657 91.8982 110.752 91.8982C110.896 91.8982 111.019 91.9165 111.127 91.9505C111.221 91.9871 111.271 91.961 111.276 91.8747L111.459 90.9101C111.473 90.8317 111.452 90.7768 111.394 90.7507C111.221 90.6592 111.022 90.6121 110.791 90.6121M105.663 90.8056V94.0627C105.663 94.3973 105.566 94.6666 105.372 94.8652C105.178 95.0665 104.921 95.1658 104.598 95.1658C104.276 95.1658 104.037 95.0665 103.861 94.8652C103.686 94.6666 103.599 94.3973 103.599 94.0627V90.8056C103.599 90.769 103.586 90.7402 103.563 90.7141C103.536 90.6879 103.508 90.6775 103.471 90.6775H102.482C102.446 90.6775 102.417 90.6905 102.391 90.7141C102.364 90.7402 102.354 90.769 102.354 90.8056V94.4182C102.354 94.9959 102.537 95.4429 102.907 95.7593C103.277 96.0729 103.733 96.2298 104.278 96.2298C104.866 96.2298 105.306 96.0416 105.6 95.6625C105.615 95.6416 105.629 95.6338 105.642 95.6416C105.657 95.6495 105.663 95.6625 105.663 95.6834V96.0259C105.663 96.0625 105.676 96.0912 105.699 96.1174C105.726 96.1435 105.754 96.154 105.791 96.154H106.769C106.806 96.154 106.835 96.1409 106.861 96.1174C106.887 96.0912 106.898 96.0625 106.898 96.0259V90.8056C106.898 90.769 106.884 90.7402 106.861 90.7141C106.835 90.6879 106.806 90.6775 106.769 90.6775H105.791C105.754 90.6775 105.726 90.6905 105.699 90.7141C105.673 90.7402 105.663 90.769 105.663 90.8056ZM101.31 91.5558V90.8056C101.31 90.769 101.297 90.7402 101.274 90.7141C101.248 90.6879 101.219 90.6775 101.182 90.6775H100.086C100.049 90.6775 100.031 90.6592 100.031 90.6252V89.3704C100.031 89.3338 100.018 89.3051 99.9943 89.2789C99.9681 89.2528 99.9393 89.2423 99.9026 89.2423H98.9666C98.9299 89.2423 98.901 89.2554 98.8748 89.2789C98.8486 89.3051 98.8381 89.3338 98.8381 89.3704V90.6252C98.8381 90.6618 98.8197 90.6775 98.7857 90.6775H98.1722C98.1355 90.6775 98.1066 90.6905 98.0804 90.7141C98.0542 90.7402 98.0437 90.769 98.0437 90.8056V91.5558C98.0437 91.5924 98.0568 91.6211 98.0804 91.6473C98.104 91.6734 98.1355 91.6839 98.1722 91.6839H98.7857C98.8224 91.6839 98.8381 91.7022 98.8381 91.7362V94.7894C98.846 95.3253 98.9875 95.6887 99.2681 95.8821C99.5486 96.0756 99.9707 96.1723 100.537 96.1723L101.095 96.1618C101.182 96.1487 101.224 96.1017 101.224 96.0233V95.2208C101.224 95.1842 101.211 95.1554 101.187 95.1293C101.164 95.1031 101.132 95.0927 101.095 95.0927H100.773C100.516 95.0927 100.327 95.0325 100.209 94.9097C100.091 94.7894 100.031 94.5908 100.031 94.3189V91.7362C100.031 91.6996 100.049 91.6839 100.086 91.6839H101.182C101.219 91.6839 101.248 91.6708 101.274 91.6473C101.3 91.6238 101.31 91.5924 101.31 91.5558ZM94.9788 96.2402C95.5373 96.2402 96.0249 96.1069 96.4418 95.8377C96.8586 95.571 97.1339 95.2077 97.2703 94.7502C97.2834 94.7005 97.3017 94.6169 97.3227 94.5045C97.3306 94.4627 97.3227 94.4287 97.2965 94.4025C97.2703 94.3764 97.2414 94.3607 97.2047 94.3555L96.2373 94.2065C96.1586 94.1934 96.1088 94.2274 96.0878 94.3137C96.0878 94.3267 96.0852 94.3398 96.0773 94.345C96.0773 94.3659 96.0747 94.3842 96.0669 94.3973C96.0092 94.6326 95.8833 94.8208 95.6867 94.9593C95.4901 95.0979 95.2541 95.1685 94.9814 95.1685C94.7088 95.1685 94.4702 95.0953 94.2814 94.9489C94.0926 94.8025 93.9668 94.6038 93.8934 94.3529C93.8278 94.1098 93.7964 93.7935 93.7964 93.3987C93.7964 93.004 93.8331 92.6746 93.9039 92.4446C93.9694 92.2015 94.0953 92.0107 94.2867 91.8721C94.4754 91.7336 94.7088 91.663 94.9788 91.663C95.2489 91.663 95.4743 91.7283 95.6657 91.8564C95.8571 91.9845 95.9882 92.1492 96.0537 92.3505C96.0669 92.3923 96.0826 92.4446 96.0957 92.4995C96.1036 92.5204 96.1062 92.5491 96.1062 92.5857C96.1272 92.6563 96.1717 92.6929 96.2347 92.6929H96.2556L97.2231 92.5544C97.3017 92.5413 97.3411 92.4969 97.3411 92.4263V92.4054C97.3279 92.2904 97.3017 92.1779 97.265 92.0629C97.1287 91.6421 96.8534 91.2918 96.4365 91.0121C96.0223 90.7324 95.5346 90.5938 94.9736 90.5938C94.4125 90.5938 93.9432 90.7324 93.5394 91.0068C93.1331 91.2813 92.8578 91.6551 92.7057 92.1257C92.5903 92.455 92.5327 92.8759 92.5327 93.3909C92.5327 93.9059 92.5903 94.3555 92.7057 94.677C92.863 95.1554 93.1435 95.537 93.5447 95.8194C93.9458 96.1017 94.423 96.2429 94.9736 96.2429M90.1154 90.8082V94.0653C90.1154 94.3999 90.0184 94.6692 89.8243 94.8678C89.6303 95.0691 89.3734 95.1685 89.0509 95.1685C88.7284 95.1685 88.4898 95.0691 88.3142 94.8678C88.1385 94.6692 88.052 94.3999 88.052 94.0653V90.8082C88.052 90.7716 88.0389 90.7428 88.0153 90.7167C87.9891 90.6905 87.9602 90.6801 87.9235 90.6801H86.9351C86.8984 90.6801 86.8696 90.6931 86.8433 90.7167C86.8171 90.7428 86.8066 90.7716 86.8066 90.8082V94.4208C86.8066 94.9986 86.9902 95.4456 87.3598 95.7619C87.7295 96.0756 88.1857 96.2324 88.731 96.2324C89.3183 96.2324 89.7588 96.0442 90.0524 95.6651C90.0655 95.6442 90.0813 95.6364 90.0944 95.6442C90.1075 95.6521 90.1154 95.6651 90.1154 95.6861V96.0285C90.1154 96.0651 90.1285 96.0939 90.1521 96.12C90.1783 96.1461 90.2071 96.1566 90.2438 96.1566H91.2218C91.2585 96.1566 91.2873 96.1435 91.3135 96.12C91.3397 96.0939 91.3502 96.0651 91.3502 96.0285V90.8082C91.3502 90.7716 91.3371 90.7428 91.3135 90.7167C91.2873 90.6905 91.2585 90.6801 91.2218 90.6801H90.2438C90.2071 90.6801 90.1783 90.6931 90.1521 90.7167C90.1258 90.7428 90.1154 90.7716 90.1154 90.8082ZM85.3856 90.6147C84.8482 90.6147 84.4287 90.8474 84.1272 91.3127C84.114 91.3336 84.1009 91.3441 84.0905 91.3388C84.08 91.3362 84.0747 91.3205 84.0747 91.2918V90.8108C84.0747 90.7742 84.0616 90.7454 84.038 90.7193C84.0118 90.6932 83.983 90.6827 83.9463 90.6827H82.9578C82.9211 90.6827 82.8923 90.6958 82.8661 90.7193C82.8399 90.7454 82.8294 90.7742 82.8294 90.8108V96.0311C82.8294 96.0677 82.8425 96.0965 82.8661 96.1226C82.8923 96.1487 82.9211 96.1592 82.9578 96.1592H83.9463C83.983 96.1592 84.0118 96.1461 84.038 96.1226C84.0642 96.0965 84.0747 96.0677 84.0747 96.0311V92.9988C84.0747 92.6851 84.1744 92.4289 84.3762 92.2328C84.5755 92.0368 84.8272 91.9322 85.1287 91.9165C85.1785 91.9087 85.2493 91.9061 85.3437 91.9061C85.4879 91.9061 85.6137 91.9244 85.7212 91.9584C85.813 91.995 85.8654 91.9688 85.8707 91.8826L86.0542 90.918C86.0673 90.8395 86.0463 90.7846 85.9886 90.7585C85.8156 90.667 85.6163 90.62 85.3856 90.62M81.7203 91.5636V90.8134C81.7203 90.7768 81.7072 90.748 81.6836 90.7219C81.6574 90.6958 81.6286 90.6853 81.5919 90.6853H80.496C80.4593 90.6853 80.4435 90.667 80.4435 90.633V89.3783C80.4435 89.3417 80.4304 89.3129 80.4068 89.2868C80.3806 89.2606 80.3518 89.2502 80.3151 89.2502H79.3791C79.3424 89.2502 79.3135 89.2632 79.2873 89.2868C79.2611 89.3129 79.2506 89.3417 79.2506 89.3783V90.633C79.2506 90.6696 79.2322 90.6853 79.1955 90.6853H78.582C78.5453 90.6853 78.5165 90.6984 78.4903 90.7219C78.4641 90.748 78.4536 90.7768 78.4536 90.8134V91.5636C78.4536 91.6002 78.4667 91.629 78.4903 91.6551C78.5165 91.6813 78.5453 91.6917 78.582 91.6917H79.1955C79.2322 91.6917 79.2506 91.71 79.2506 91.744V94.7973C79.2585 95.3332 79.4 95.6965 79.6806 95.89C79.9611 96.0834 80.3832 96.1801 80.9495 96.1801L81.508 96.1697C81.5945 96.1566 81.6364 96.1095 81.6364 96.0311V95.2286C81.6364 95.192 81.6233 95.1632 81.5997 95.1371C81.5735 95.111 81.5447 95.1005 81.508 95.1005H81.1855C80.9286 95.1005 80.7398 95.0404 80.6218 94.9175C80.5038 94.7973 80.4435 94.5986 80.4435 94.3267V91.744C80.4435 91.7074 80.4619 91.6917 80.496 91.6917H81.5919C81.6286 91.6917 81.6574 91.6787 81.6836 91.6551C81.7099 91.629 81.7203 91.6002 81.7203 91.5636ZM75.5617 96.2272C76.2277 96.2272 76.7625 96.0834 77.1636 95.7932C77.5648 95.5031 77.7667 95.1057 77.7667 94.5986C77.7667 94.264 77.6775 93.9895 77.4992 93.7778C77.321 93.566 77.1007 93.4013 76.8438 93.2837C76.5868 93.1661 76.267 93.0511 75.8868 92.936L75.6509 92.8707C75.2576 92.7635 74.9744 92.6668 74.8066 92.5753C74.6388 92.4864 74.555 92.3557 74.555 92.1832C74.555 91.9976 74.6415 91.8538 74.8197 91.7492C74.9954 91.6447 75.2235 91.595 75.5014 91.595C75.816 91.595 76.0651 91.6577 76.2486 91.7832C76.4322 91.9087 76.5239 92.0629 76.5239 92.2485C76.5239 92.2851 76.537 92.3139 76.5606 92.34C76.5868 92.3662 76.6157 92.3766 76.6524 92.3766H77.5648C77.6015 92.3766 77.6303 92.3635 77.6565 92.34C77.6828 92.3139 77.6933 92.2851 77.6933 92.2485C77.6933 91.9348 77.6041 91.6551 77.4258 91.4068C77.2475 91.1611 76.9932 90.9676 76.6629 90.8291C76.3325 90.6905 75.9498 90.62 75.5119 90.62C74.8669 90.62 74.3478 90.769 73.9519 91.0643C73.5587 91.3597 73.362 91.7597 73.362 92.259C73.362 92.5884 73.4485 92.8576 73.619 93.0694C73.792 93.2811 74.0018 93.4458 74.2534 93.5686C74.5051 93.6915 74.8119 93.8039 75.1789 93.9111L75.5879 94.0392C75.9183 94.1333 76.1569 94.2195 76.3037 94.3006C76.4505 94.3816 76.5239 94.5071 76.5239 94.6692C76.5239 94.8469 76.4348 94.9959 76.2565 95.1136C76.0782 95.2312 75.8449 95.2913 75.5565 95.2913C75.255 95.2913 75.0059 95.226 74.8093 95.0927C74.6126 94.9593 74.513 94.8051 74.513 94.6273V94.6064C74.513 94.5698 74.4999 94.5411 74.4763 94.5149C74.4501 94.4888 74.4212 94.4784 74.3845 94.4784H73.4381C73.4014 94.4784 73.3725 94.4914 73.3463 94.5149C73.3201 94.5411 73.3096 94.5698 73.3096 94.6064V94.7032C73.3096 94.9881 73.404 95.2495 73.5901 95.4795C73.7763 95.7122 74.0385 95.8952 74.3793 96.0259C74.7201 96.1592 75.116 96.2246 75.567 96.2246M69.7518 95.26C69.487 95.26 69.2694 95.1972 69.1016 95.0717C68.9338 94.9463 68.8499 94.7685 68.8499 94.5411C68.8499 94.2771 68.96 94.0732 69.1776 93.9294C69.3952 93.7856 69.6968 93.715 70.0743 93.715H70.9762C71.0129 93.715 71.0286 93.7333 71.0286 93.7673V94.2718C71.0286 94.5568 70.9028 94.7947 70.6537 94.9803C70.402 95.1659 70.1031 95.26 69.7518 95.26ZM70.0087 90.599C69.3848 90.599 68.8683 90.7376 68.4566 91.0173C68.045 91.297 67.8091 91.6525 67.754 92.0891C67.7461 92.1178 67.754 92.1413 67.7802 92.1596C67.8064 92.1779 67.8353 92.191 67.872 92.1962L68.9155 92.3243C68.9941 92.34 69.0439 92.3034 69.0649 92.2172C69.1068 92.0446 69.2143 91.9113 69.3821 91.8146C69.5499 91.7179 69.7702 91.6708 70.0428 91.6708C70.3732 91.6708 70.6196 91.7466 70.7848 91.9009C70.95 92.0551 71.0312 92.2694 71.0312 92.5492V92.8053C71.0312 92.8419 71.0129 92.8576 70.9788 92.8576H69.8278C69.1173 92.8576 68.5694 93.0145 68.1787 93.3229C67.7881 93.634 67.5941 94.0679 67.5941 94.6247C67.5941 95.1815 67.7671 95.5658 68.1158 95.8351C68.4645 96.1069 68.905 96.2429 69.4424 96.2429C70.1084 96.2429 70.617 96.0494 70.9683 95.6651C70.9814 95.6521 70.9972 95.6442 71.0103 95.6495C71.0234 95.6521 71.0312 95.6651 71.0312 95.6861V96.0285C71.0312 96.0651 71.0443 96.0939 71.0679 96.12C71.0942 96.1461 71.123 96.1566 71.1597 96.1566H72.1481C72.1848 96.1566 72.2137 96.1435 72.2399 96.12C72.2661 96.0939 72.2766 96.0651 72.2766 96.0285V92.4158C72.2766 92.0655 72.1822 91.7545 71.9961 91.4774C71.8099 91.2029 71.5451 90.9859 71.2017 90.8291C70.8582 90.6722 70.4597 90.5938 70.0087 90.5938M66.4824 90.6147C65.9449 90.6147 65.5255 90.8474 65.2239 91.3127C65.2108 91.3336 65.1977 91.3441 65.1872 91.3388C65.1768 91.3336 65.1715 91.3205 65.1715 91.2918V90.8108C65.1715 90.7742 65.1584 90.7454 65.1348 90.7193C65.1086 90.6932 65.0798 90.6827 65.043 90.6827H64.0546C64.0179 90.6827 63.9891 90.6958 63.9629 90.7193C63.9366 90.7454 63.9262 90.7742 63.9262 90.8108V96.0311C63.9262 96.0677 63.9393 96.0965 63.9629 96.1226C63.9891 96.1487 64.0179 96.1592 64.0546 96.1592H65.043C65.0798 96.1592 65.1086 96.1461 65.1348 96.1226C65.161 96.0965 65.1715 96.0677 65.1715 96.0311V92.9988C65.1715 92.6851 65.2711 92.4289 65.473 92.2328C65.6723 92.0368 65.924 91.9322 66.2255 91.9165C66.2753 91.9087 66.3461 91.9061 66.4405 91.9061C66.5847 91.9061 66.7079 91.9244 66.8154 91.9584C66.9072 91.995 66.9596 91.9688 66.9648 91.8826L67.1484 90.918C67.1615 90.8395 67.1405 90.7846 67.0828 90.7585C66.9098 90.667 66.7105 90.62 66.4798 90.62M62.7385 90.6722H61.674C61.6373 90.6722 61.619 90.6539 61.619 90.62V90.5128C61.619 90.1912 61.6793 89.969 61.7973 89.8488C61.9152 89.7285 62.1276 89.6658 62.437 89.6658H62.7175C62.7542 89.6658 62.7831 89.6527 62.8093 89.6292C62.8355 89.6031 62.846 89.5743 62.846 89.5377V88.7875C62.846 88.7509 62.8329 88.7221 62.8093 88.696C62.7831 88.6698 62.7542 88.6594 62.7175 88.6594H62.3426C61.834 88.6515 61.4407 88.7012 61.1602 88.8084C60.8796 88.9156 60.6804 89.0959 60.5571 89.3495C60.4365 89.6031 60.3736 89.9612 60.3736 90.4265V90.62C60.3736 90.6566 60.3553 90.6722 60.3186 90.6722H59.6526C59.6159 90.6722 59.5871 90.6853 59.5609 90.7088C59.5346 90.735 59.5241 90.7637 59.5241 90.8003V91.6473C59.5241 91.6839 59.5373 91.7126 59.5609 91.7388C59.5871 91.7649 59.6159 91.7754 59.6526 91.7754H60.3186C60.3553 91.7754 60.3736 91.7937 60.3736 91.8277V96.0285C60.3736 96.0651 60.3867 96.0939 60.4103 96.12C60.4365 96.1461 60.4654 96.1566 60.5021 96.1566H61.4905C61.5272 96.1566 61.556 96.1435 61.5823 96.12C61.6085 96.0939 61.619 96.0651 61.619 96.0285V91.8277C61.619 91.7911 61.6373 91.7754 61.674 91.7754H62.7385C62.7752 91.7754 62.804 91.7623 62.8302 91.7388C62.8565 91.7126 62.867 91.6839 62.867 91.6473V90.8003C62.867 90.7637 62.8538 90.735 62.8302 90.7088C62.804 90.6827 62.7752 90.6722 62.7385 90.6722ZM56.6664 90.5964C56.0712 90.5964 55.6281 90.7899 55.3345 91.1741C55.3266 91.1951 55.3162 91.2029 55.303 91.195C55.2873 91.1872 55.2821 91.1741 55.2821 91.1532V90.8108C55.2821 90.7742 55.269 90.7454 55.2454 90.7193C55.2191 90.6932 55.1903 90.6827 55.1536 90.6827H54.1652C54.1285 90.6827 54.0996 90.6958 54.0734 90.7193C54.0472 90.7454 54.0367 90.7742 54.0367 90.8108V96.0311C54.0367 96.0677 54.0498 96.0965 54.0734 96.1226C54.0996 96.1487 54.1285 96.1592 54.1652 96.1592H55.1536C55.1903 96.1592 55.2191 96.1461 55.2454 96.1226C55.2716 96.0965 55.2821 96.0677 55.2821 96.0311V92.7635C55.2821 92.4341 55.3764 92.1701 55.5678 91.9714C55.7566 91.7728 56.0057 91.6708 56.3151 91.6708C56.6244 91.6708 56.8709 91.7728 57.057 91.9767C57.2432 92.1806 57.3376 92.4472 57.3376 92.774V96.0311C57.3376 96.0677 57.3507 96.0965 57.3743 96.1226C57.4005 96.1487 57.4293 96.1592 57.466 96.1592H58.4545C58.4912 96.1592 58.52 96.1461 58.5462 96.1226C58.5724 96.0965 58.5829 96.0677 58.5829 96.0311V92.5152C58.5829 91.9218 58.4099 91.4539 58.0612 91.1114C57.7125 90.769 57.2484 90.5964 56.669 90.5964M51.4673 96.1592H52.4558C52.4925 96.1592 52.5213 96.1461 52.5475 96.1226C52.5737 96.0965 52.5842 96.0677 52.5842 96.0311V88.7849C52.5842 88.7483 52.5711 88.7195 52.5475 88.6934C52.5239 88.6672 52.4925 88.6568 52.4558 88.6568H51.4673C51.4306 88.6568 51.4018 88.6698 51.3756 88.6934C51.3494 88.7195 51.3389 88.7483 51.3389 88.7849V96.0311C51.3389 96.0677 51.352 96.0965 51.3756 96.1226C51.4018 96.1487 51.4306 96.1592 51.4673 96.1592ZM44.5772 90.5964C43.9821 90.5964 43.539 90.7899 43.2454 91.1741C43.2375 91.1951 43.227 91.2029 43.2139 91.195C43.1982 91.1872 43.1929 91.1741 43.1929 91.1532V88.7849C43.1929 88.7483 43.1798 88.7195 43.1562 88.6934C43.13 88.6672 43.1012 88.6568 43.0645 88.6568H42.076C42.0393 88.6568 42.0105 88.6698 41.9843 88.6934C41.9581 88.7195 41.9476 88.7483 41.9476 88.7849V96.0311C41.9476 96.0677 41.9607 96.0965 41.9843 96.1226C42.0105 96.1487 42.0393 96.1592 42.076 96.1592H43.0645C43.1012 96.1592 43.13 96.1461 43.1562 96.1226C43.1824 96.0965 43.1929 96.0677 43.1929 96.0311V92.7635C43.1929 92.4341 43.2873 92.1701 43.4787 91.9714C43.6675 91.7728 43.9165 91.6708 44.2259 91.6708C44.5353 91.6708 44.7817 91.7728 44.9679 91.9767C45.154 92.1806 45.2484 92.4472 45.2484 92.774V96.0311C45.2484 96.0677 45.2615 96.0965 45.2851 96.1226C45.3113 96.1487 45.3402 96.1592 45.3769 96.1592H46.3653C46.402 96.1592 46.4309 96.1461 46.4571 96.1226C46.4833 96.0965 46.4938 96.0677 46.4938 96.0311V92.5152C46.4938 91.9218 46.3207 91.4539 45.972 91.1114C45.6233 90.769 45.1593 90.5964 44.5799 90.5964M38.5287 96.2455C39.0872 96.2455 39.5748 96.1122 39.9917 95.8429C40.4059 95.5763 40.6839 95.2129 40.8202 94.7554C40.8333 94.7058 40.8517 94.6221 40.8752 94.5097C40.8831 94.4679 40.8752 94.4339 40.849 94.4078C40.8228 94.3816 40.794 94.3659 40.7573 94.3607L39.7898 94.2117C39.7112 94.1986 39.6614 94.2326 39.6404 94.3189C39.6404 94.332 39.6378 94.345 39.6299 94.3503C39.6299 94.3712 39.6273 94.3895 39.6194 94.4025C39.5617 94.6378 39.4359 94.826 39.2392 94.9646C39.0426 95.1031 38.8066 95.1737 38.534 95.1737C38.2613 95.1737 38.0227 95.1005 37.834 94.9541C37.6478 94.8077 37.5193 94.609 37.4459 94.3581C37.3804 94.115 37.3489 93.7987 37.3489 93.404C37.3489 93.0092 37.3856 92.6799 37.4564 92.4498C37.522 92.2067 37.6478 92.0159 37.8392 91.8773C38.028 91.7388 38.2587 91.6682 38.5314 91.6682C38.804 91.6682 39.0269 91.7336 39.2183 91.8616C39.4123 91.9897 39.5408 92.1544 39.6063 92.3557C39.622 92.3975 39.6351 92.4498 39.6482 92.5047C39.6561 92.5256 39.6587 92.5544 39.6587 92.591C39.6797 92.6616 39.7243 92.6981 39.7872 92.6981H39.8082L40.7756 92.5596C40.8543 92.5465 40.8936 92.5021 40.8936 92.4315V92.4106C40.8779 92.2956 40.8543 92.1832 40.8176 92.0682C40.6812 91.6473 40.4059 91.297 39.9891 91.0173C39.5722 90.7376 39.0872 90.599 38.5261 90.599C37.965 90.599 37.4957 90.7376 37.092 91.0121C36.6882 91.2865 36.4103 91.6604 36.2582 92.1309C36.1429 92.4603 36.0852 92.8811 36.0852 93.3961C36.0852 93.9111 36.1429 94.3607 36.2582 94.6822C36.4156 95.1606 36.6961 95.5423 37.0972 95.8246C37.4984 96.1069 37.9755 96.2481 38.5261 96.2481M34.8608 90.62C34.3234 90.62 33.9039 90.8526 33.6024 91.3179C33.5866 91.3388 33.5761 91.3493 33.5657 91.3441C33.5552 91.3414 33.5499 91.3258 33.5499 91.297V90.816C33.5499 90.7794 33.5368 90.7507 33.5132 90.7245C33.487 90.6984 33.4582 90.6879 33.4215 90.6879H32.433C32.3963 90.6879 32.3675 90.701 32.3413 90.7245C32.3151 90.7507 32.3046 90.7794 32.3046 90.816V96.0363C32.3046 96.0729 32.3177 96.1017 32.3413 96.1278C32.3675 96.154 32.3963 96.1644 32.433 96.1644H33.4215C33.4582 96.1644 33.487 96.1514 33.5132 96.1278C33.5394 96.1017 33.5499 96.0729 33.5499 96.0363V93.004C33.5499 92.6903 33.6496 92.4341 33.8514 92.2381C34.0507 92.042 34.3024 91.9375 34.6039 91.9218C34.6537 91.9139 34.7245 91.9113 34.8189 91.9113C34.9631 91.9113 35.0863 91.9296 35.1938 91.9636C35.2856 92.0002 35.338 91.9741 35.3432 91.8878L35.5268 90.9232C35.5399 90.8448 35.5189 90.7899 35.4612 90.7637C35.2882 90.6722 35.0889 90.6252 34.8582 90.6252M28.5265 95.2652C28.2617 95.2652 28.0441 95.2024 27.8763 95.077C27.7085 94.9515 27.6246 94.7737 27.6246 94.5463C27.6246 94.2823 27.7348 94.0784 27.9524 93.9346C28.17 93.7908 28.4689 93.7203 28.849 93.7203H29.7509C29.7876 93.7203 29.8034 93.7386 29.8034 93.7725V94.2771C29.8034 94.562 29.6775 94.7999 29.4284 94.9855C29.1768 95.1711 28.8752 95.2652 28.5265 95.2652ZM28.7835 90.6043C28.1595 90.6043 27.643 90.7428 27.2314 91.0225C26.8198 91.3022 26.5838 91.6577 26.5261 92.0943C26.5182 92.1231 26.5261 92.1466 26.5523 92.1649C26.5785 92.1832 26.6074 92.1962 26.6441 92.2015L27.6876 92.3296C27.7662 92.3453 27.816 92.3087 27.837 92.2224C27.879 92.0499 27.9865 91.9165 28.1543 91.8198C28.322 91.7231 28.5423 91.676 28.8149 91.676C29.1453 91.676 29.3917 91.7519 29.5569 91.9061C29.7221 92.0603 29.8034 92.2747 29.8034 92.5544V92.8106C29.8034 92.8472 29.785 92.8628 29.7509 92.8628H28.6C27.8894 92.8628 27.3415 93.0197 26.9508 93.3281C26.5602 93.6392 26.3636 94.0732 26.3636 94.63C26.3636 95.1868 26.5366 95.571 26.8853 95.8403C27.2314 96.1122 27.6745 96.2481 28.2119 96.2481C28.8779 96.2481 29.3865 96.0546 29.7378 95.6704C29.7509 95.6573 29.7667 95.6495 29.7798 95.6547C29.7929 95.6573 29.8007 95.6704 29.8007 95.6913V96.0337C29.8007 96.0703 29.8139 96.0991 29.8375 96.1252C29.861 96.1514 29.8925 96.1618 29.9292 96.1618H30.9176C30.9543 96.1618 30.9832 96.1487 31.0094 96.1252C31.0356 96.0991 31.0461 96.0703 31.0461 96.0337V92.4211C31.0461 92.0708 30.9517 91.7597 30.7656 91.4826C30.5794 91.2081 30.3146 90.9912 29.9712 90.8343C29.6277 90.6775 29.2292 90.599 28.7782 90.599M23.1676 91.6708C23.4534 91.6708 23.6919 91.7414 23.8833 91.8852C24.0721 92.0289 24.2006 92.2276 24.2661 92.4864C24.295 92.5805 24.3159 92.7164 24.3317 92.8942C24.3317 92.9308 24.3133 92.9465 24.2792 92.9465H22.0979C22.0559 92.9465 22.0402 92.9282 22.0559 92.8942C22.0717 92.7008 22.0979 92.5439 22.1425 92.4237C22.2132 92.1884 22.3391 92.0054 22.5147 91.8721C22.6904 91.7388 22.9106 91.6734 23.1754 91.6734M25.5613 92.8106C25.383 91.3388 24.586 90.6017 23.1754 90.6017C22.617 90.6017 22.1372 90.7454 21.7413 91.0356C21.3428 91.3258 21.0728 91.7205 20.9286 92.2198C20.842 92.476 20.8001 92.8132 20.8001 93.2262C20.8001 93.9111 20.8814 94.447 21.0465 94.8339C21.2248 95.2835 21.5106 95.6338 21.9012 95.8847C22.2919 96.1357 22.7664 96.2585 23.3249 96.2585C23.7758 96.2585 24.1875 96.1723 24.5545 96.0024C24.9242 95.8298 25.2205 95.5867 25.4407 95.273C25.4826 95.2077 25.4721 95.1528 25.4092 95.1005L24.7433 94.5542C24.7223 94.5332 24.6961 94.5228 24.6672 94.5228C24.6253 94.5228 24.5886 94.5437 24.5598 94.5881C24.274 94.9881 23.886 95.1894 23.3983 95.1894C22.7324 95.1815 22.3129 94.9201 22.1398 94.4078C22.0979 94.3215 22.0638 94.162 22.0428 93.9268C22.0428 93.8902 22.0612 93.8745 22.0953 93.8745H25.459C25.5456 93.8745 25.5875 93.8327 25.5875 93.7464L25.598 93.4144C25.598 93.1922 25.5823 92.9935 25.556 92.8132M17.667 96.2324C18.333 96.2324 18.8678 96.0886 19.269 95.7985C19.6701 95.5083 19.872 95.111 19.872 94.6038C19.872 94.2692 19.7828 93.9947 19.6045 93.783C19.4263 93.5713 19.206 93.4066 18.9491 93.2889C18.6922 93.1713 18.3723 93.0563 17.9921 92.9413L17.7562 92.8759C17.3629 92.7687 17.0797 92.672 16.912 92.5805C16.7442 92.4916 16.6603 92.3609 16.6603 92.1884C16.6603 92.0028 16.7468 91.859 16.9224 91.7545C17.0981 91.6499 17.3262 91.6002 17.6041 91.6002C17.9187 91.6002 18.1678 91.663 18.3513 91.7885C18.5349 91.9139 18.624 92.0682 18.624 92.2538C18.624 92.2904 18.6371 92.3191 18.6607 92.3453C18.6869 92.3714 18.7158 92.3818 18.7525 92.3818H19.6675C19.7042 92.3818 19.733 92.3688 19.7592 92.3453C19.7854 92.3191 19.7959 92.2904 19.7959 92.2538C19.7959 91.9401 19.7068 91.6604 19.5259 91.412C19.3476 91.1663 19.0933 90.9729 18.7629 90.8343C18.4326 90.6958 18.0498 90.6252 17.612 90.6252C16.967 90.6252 16.4479 90.7742 16.0546 91.0696C15.6614 91.365 15.4621 91.7649 15.4621 92.2642C15.4621 92.5936 15.5486 92.8628 15.719 93.0746C15.8921 93.2863 16.1018 93.451 16.3535 93.5739C16.6052 93.6967 16.912 93.8091 17.279 93.9163L17.688 94.0444C18.0184 94.1385 18.2569 94.2248 18.4038 94.3058C18.5506 94.3869 18.624 94.5123 18.624 94.6744C18.624 94.8522 18.5348 95.0012 18.3539 95.1188C18.1757 95.2364 17.9423 95.2966 17.6539 95.2966C17.3524 95.2966 17.1033 95.2312 16.9067 95.0979C16.7101 94.9646 16.6104 94.8103 16.6104 94.6326V94.6117C16.6104 94.5751 16.5973 94.5463 16.5737 94.5202C16.5475 94.494 16.5187 94.4836 16.482 94.4836H15.5355C15.4988 94.4836 15.47 94.4966 15.4437 94.5202C15.4175 94.5463 15.407 94.5751 15.407 94.6117V94.7084C15.407 94.9933 15.4988 95.2547 15.6876 95.4848C15.8737 95.7174 16.1385 95.9004 16.4767 96.0311C16.8176 96.1644 17.2135 96.2298 17.6644 96.2298M12.1403 91.6734C12.426 91.6734 12.6646 91.744 12.856 91.8878C13.0448 92.0316 13.1733 92.2302 13.2388 92.489C13.2676 92.5831 13.2886 92.7191 13.3043 92.8968C13.3043 92.9334 13.286 92.9491 13.2493 92.9491H11.0679C11.026 92.9491 11.0103 92.9308 11.026 92.8968C11.0391 92.7034 11.0679 92.5465 11.1125 92.4263C11.1833 92.191 11.3065 92.008 11.4822 91.8747C11.6579 91.7414 11.8781 91.676 12.1429 91.676M14.5287 92.8132C14.3504 91.3414 13.5534 90.6043 12.1429 90.6043C11.5844 90.6043 11.1047 90.748 10.7088 91.0382C10.3102 91.3284 10.0402 91.7231 9.896 92.2224C9.80948 92.4786 9.76753 92.8158 9.76753 93.2288C9.76753 93.9137 9.84881 94.4496 10.014 94.8365C10.1923 95.2861 10.478 95.6364 10.8687 95.8873C11.2593 96.1383 11.7339 96.2612 12.2923 96.2612C12.7433 96.2612 13.1549 96.1749 13.522 96.005C13.8916 95.8324 14.1853 95.5893 14.4081 95.2756C14.4501 95.2103 14.4396 95.1554 14.3767 95.1031L13.7107 94.5568C13.6898 94.5359 13.6635 94.5254 13.6347 94.5254C13.5927 94.5254 13.556 94.5463 13.5272 94.5908C13.2414 94.9907 12.8534 95.192 12.3657 95.192C11.6998 95.1841 11.2803 94.9227 11.1073 94.4104C11.0653 94.3241 11.0312 94.1647 11.0103 93.9294C11.0103 93.8928 11.0286 93.8771 11.0653 93.8771H14.4291C14.5156 93.8771 14.5576 93.8353 14.5576 93.749L14.5681 93.417C14.5681 93.1948 14.5523 92.9962 14.5261 92.8158M4.78611 89.739H6.39851C6.74197 89.739 7.01988 89.8436 7.23225 90.0501C7.44462 90.2566 7.54949 90.5285 7.54949 90.8657C7.54949 91.2029 7.44462 91.4721 7.23225 91.676C7.01988 91.8799 6.74459 91.9819 6.39851 91.9819H4.78611C4.7494 91.9819 4.73367 91.9636 4.73367 91.9296V89.7965C4.73367 89.7599 4.75202 89.7442 4.78611 89.7442M7.70942 96.1749H8.74241C8.82106 96.1749 8.86039 96.1461 8.86039 96.0886C8.86039 96.0756 8.85252 96.052 8.83942 96.0233L7.32401 92.9047C7.31615 92.8916 7.31615 92.8759 7.32401 92.8628C7.33188 92.8498 7.34237 92.8419 7.35547 92.8419C7.80642 92.706 8.16037 92.4655 8.41468 92.1178C8.669 91.7702 8.79747 91.3519 8.79747 90.8578C8.79747 90.4291 8.70308 90.0501 8.51693 89.7155C8.33079 89.3835 8.0686 89.1247 7.73301 88.9443C7.39742 88.7613 7.0094 88.6698 6.57155 88.6698H3.61678C3.58007 88.6698 3.55124 88.6829 3.52502 88.7064C3.4988 88.7326 3.48831 88.7613 3.48831 88.7979V96.0442C3.48831 96.0808 3.50142 96.1095 3.52502 96.1357C3.55124 96.1618 3.58007 96.1723 3.61678 96.1723H4.6052C4.64191 96.1723 4.67075 96.1592 4.69696 96.1357C4.72318 96.1095 4.73367 96.0808 4.73367 96.0442V93.0014C4.73367 92.9648 4.75202 92.9491 4.78611 92.9491H6.07603C6.10487 92.9491 6.12585 92.9622 6.14158 92.9909L7.55997 96.0782C7.58881 96.1435 7.63863 96.1749 7.70942 96.1749Z" fill="#84134F"/>
<path d="M116.952 77.1679H111.127C111.074 77.1679 111.035 77.1835 111.006 77.2123C110.977 77.2411 110.961 77.2829 110.961 77.3325V78.7807C110.961 78.833 110.977 78.8722 111.006 78.901C111.035 78.9297 111.077 78.9454 111.127 78.9454H112.922C112.959 78.9454 112.978 78.9637 112.978 79.0003V84.6886C112.978 84.7409 112.993 84.7801 113.022 84.8088C113.051 84.8376 113.093 84.8533 113.143 84.8533H114.884C114.936 84.8533 114.975 84.8376 115.004 84.8088C115.033 84.7801 115.049 84.7383 115.049 84.6886V79.0003C115.049 78.9637 115.067 78.9454 115.104 78.9454H116.955C117.007 78.9454 117.047 78.9297 117.075 78.901C117.104 78.8722 117.12 78.8304 117.12 78.7807V77.3325C117.12 77.2803 117.104 77.2411 117.075 77.2123C117.047 77.1835 117.005 77.1679 116.955 77.1679M106.934 84.9422C107.529 84.9422 108.051 84.848 108.497 84.6572C108.945 84.4664 109.294 84.1945 109.543 83.839C109.792 83.4835 109.918 83.0626 109.918 82.5712C109.918 82.0797 109.763 81.6353 109.456 81.2798C109.15 80.9243 108.764 80.6786 108.305 80.5453C107.847 80.4093 107.587 80.3309 107.529 80.31C107.105 80.1793 106.787 80.0695 106.583 79.9858C106.378 79.9022 106.226 79.8133 106.127 79.7218C106.027 79.6303 105.977 79.5179 105.977 79.3872C105.977 79.2199 106.045 79.0866 106.182 78.9925C106.318 78.8984 106.504 78.8487 106.738 78.8487C107.076 78.8487 107.343 78.9376 107.543 79.118C107.742 79.2983 107.839 79.497 107.839 79.7166V79.727C107.839 79.7793 107.854 79.8185 107.883 79.8473C107.912 79.8761 107.954 79.8917 108.004 79.8917H109.711C109.763 79.8917 109.802 79.8761 109.831 79.8473C109.86 79.8185 109.876 79.7767 109.876 79.727V79.6277C109.876 79.131 109.742 78.6866 109.475 78.2998C109.207 77.9129 108.84 77.6123 108.374 77.4005C107.907 77.1888 107.388 77.0816 106.816 77.0816C106.245 77.0816 105.783 77.1757 105.345 77.3665C104.908 77.5574 104.567 77.8292 104.315 78.1847C104.066 78.5403 103.94 78.948 103.94 79.4081C103.94 80.1035 104.187 80.6341 104.677 81.0001C105.17 81.3661 105.778 81.6589 106.504 81.8784L106.824 81.9673C107.212 82.085 107.482 82.1843 107.629 82.2627C107.776 82.3438 107.849 82.464 107.849 82.6261C107.849 82.7646 107.792 82.8901 107.674 83.0051C107.556 83.1175 107.362 83.175 107.089 83.175C106.73 83.175 106.441 83.0966 106.224 82.9398C106.006 82.7829 105.899 82.6025 105.899 82.396V82.3307C105.899 82.2784 105.883 82.2392 105.854 82.2104C105.825 82.1817 105.783 82.166 105.733 82.166H104.027C103.974 82.166 103.935 82.1817 103.906 82.2104C103.877 82.2392 103.861 82.281 103.861 82.3307V82.4849C103.861 82.9764 103.987 83.4077 104.242 83.7815C104.496 84.1553 104.853 84.4429 105.317 84.6441C105.778 84.8454 106.318 84.9448 106.934 84.9448M99.6456 84.9448C100.241 84.9448 100.765 84.8324 101.221 84.6049C101.678 84.3775 102.029 84.056 102.278 83.6377C102.527 83.2195 102.653 82.7385 102.653 82.1895V77.3378C102.653 77.2855 102.637 77.2463 102.608 77.2175C102.579 77.1888 102.537 77.1731 102.488 77.1731H100.747C100.694 77.1731 100.655 77.1888 100.626 77.2175C100.597 77.2463 100.582 77.2881 100.582 77.3378V82.1895C100.582 82.4823 100.495 82.7202 100.322 82.9032C100.149 83.0862 99.9235 83.1776 99.6456 83.1776C99.3677 83.1776 99.1291 83.0888 98.9587 82.9084C98.7857 82.728 98.6992 82.4901 98.6992 82.1895V77.3378C98.6992 77.2855 98.6834 77.2463 98.6546 77.2175C98.6257 77.1888 98.5838 77.1731 98.534 77.1731H96.7931C96.7407 77.1731 96.7013 77.1888 96.6725 77.2175C96.6437 77.2463 96.6279 77.2881 96.6279 77.3378V82.1895C96.6279 82.7385 96.7538 83.2221 97.0029 83.6377C97.2519 84.056 97.6059 84.3775 98.0647 84.6049C98.5235 84.8324 99.0505 84.9448 99.6456 84.9448ZM91.2427 82.166L91.9375 79.7061C91.9454 79.6852 91.9559 79.6722 91.9716 79.6722C91.9873 79.6722 91.9978 79.6826 92.0057 79.7061L92.711 82.166C92.7267 82.2104 92.7109 82.2313 92.6664 82.2313H91.2899C91.2532 82.2313 91.2375 82.2104 91.2454 82.166M93.6338 84.8559H95.5163C95.6185 84.8559 95.671 84.8167 95.671 84.7356C95.671 84.7069 95.6683 84.6834 95.6605 84.6703L93.3376 77.3038C93.3087 77.2149 93.2458 77.1731 93.1514 77.1731H90.818C90.7236 77.1731 90.6607 77.2175 90.6319 77.3038L88.3089 84.6703C88.2722 84.7958 88.3194 84.8559 88.4531 84.8559H90.3356C90.4378 84.8559 90.5008 84.8088 90.5217 84.7121L90.763 83.8547C90.7761 83.8259 90.797 83.8103 90.818 83.8103H93.1514C93.1724 83.8103 93.1907 83.8259 93.2065 83.8547L93.4477 84.7121C93.4687 84.8062 93.5316 84.8559 93.6338 84.8559ZM84.4496 84.9448C85.0527 84.9448 85.5823 84.8324 86.0411 84.6102C86.4999 84.388 86.8565 84.0743 87.1082 83.6717C87.3625 83.2691 87.4883 82.8038 87.4883 82.2784C87.4883 82.213 87.4333 82.1764 87.3231 82.1686L85.5823 82.0797C85.5298 82.0719 85.4905 82.0797 85.4617 82.1006C85.4328 82.1216 85.4171 82.1555 85.4171 82.2C85.4171 82.4928 85.3279 82.728 85.1523 82.9084C84.9766 83.0888 84.7407 83.1776 84.447 83.1776C84.1534 83.1776 83.9174 83.0888 83.7418 82.9084C83.5661 82.728 83.477 82.4928 83.477 82.2V79.8395C83.477 79.5388 83.5661 79.2983 83.7418 79.1206C83.9174 78.9428 84.1534 78.8513 84.447 78.8513C84.7407 78.8513 84.9766 78.9402 85.1523 79.1206C85.3279 79.301 85.4171 79.5388 85.4171 79.8395C85.4171 79.9205 85.4617 79.9597 85.5482 79.9597H85.5823L87.3231 79.8499C87.4333 79.8342 87.4883 79.795 87.4883 79.7297C87.4883 79.2016 87.3625 78.7389 87.1082 78.3416C86.8538 77.9416 86.4999 77.6332 86.0411 77.4136C85.5823 77.194 85.0527 77.0842 84.4496 77.0842C83.8466 77.0842 83.317 77.2018 82.8582 77.4345C82.3994 77.6698 82.0428 77.9991 81.7911 78.4226C81.5394 78.8461 81.411 79.3376 81.411 79.8944V82.1111C81.411 82.6757 81.5368 83.1698 81.7911 83.5985C82.0455 84.0272 82.3994 84.3566 82.8582 84.5919C83.317 84.8271 83.8466 84.9422 84.4496 84.9422M77.106 83.2195C76.8045 83.2195 76.5606 83.1201 76.3745 82.9189C76.1883 82.7176 76.094 82.4483 76.094 82.1111V79.9597C76.094 79.6225 76.1883 79.3532 76.3745 79.152C76.5606 78.9507 76.8045 78.8513 77.106 78.8513C77.4075 78.8513 77.6618 78.9533 77.8479 79.152C78.0341 79.3532 78.1285 79.6225 78.1285 79.9597V82.1111C78.1285 82.4483 78.0341 82.7176 77.8479 82.9189C77.6618 83.1201 77.4127 83.2195 77.106 83.2195ZM77.106 84.9866C77.7221 84.9866 78.2648 84.8637 78.7289 84.618C79.1955 84.3723 79.5574 84.0298 79.8143 83.5854C80.0712 83.1437 80.1997 82.6287 80.1997 82.0431V79.978C80.1997 79.4081 80.0712 78.901 79.8143 78.4618C79.5574 78.0227 79.1955 77.6828 78.7289 77.4397C78.2622 77.1992 77.7221 77.0764 77.106 77.0764C76.4898 77.0764 75.9576 77.1966 75.4936 77.4397C75.0269 77.6802 74.6651 78.0227 74.4081 78.4618C74.1512 78.901 74.0227 79.4055 74.0227 79.978V82.0431C74.0227 82.6287 74.1512 83.1437 74.4081 83.5854C74.6651 84.0272 75.0269 84.3723 75.4936 84.618C75.9602 84.8637 76.4977 84.9866 77.106 84.9866ZM67.5364 84.8559H72.898C72.9478 84.8559 72.9897 84.8402 73.0186 84.8115C73.0474 84.7827 73.0631 84.7409 73.0631 84.6912V83.2535C73.0631 83.2012 73.0474 83.162 73.0186 83.1332C72.9897 83.1044 72.9478 83.0888 72.898 83.0888H69.4949C69.4582 83.0888 69.4398 83.0705 69.4398 83.0339V77.3352C69.4398 77.2829 69.4241 77.2437 69.3952 77.2149C69.3664 77.1862 69.3244 77.1705 69.2746 77.1705H67.5338C67.4813 77.1705 67.442 77.1862 67.4132 77.2149C67.3843 77.2437 67.3686 77.2855 67.3686 77.3352V84.6912C67.3686 84.7435 67.3817 84.7827 67.4132 84.8115C67.442 84.8402 67.4839 84.8559 67.5338 84.8559M62.964 83.2195C62.6624 83.2195 62.4186 83.1201 62.2325 82.9189C62.0463 82.7176 61.9519 82.4483 61.9519 82.1111V79.9597C61.9519 79.6225 62.0463 79.3532 62.2325 79.152C62.4186 78.9507 62.6624 78.8513 62.964 78.8513C63.2655 78.8513 63.5198 78.9533 63.7059 79.152C63.8921 79.3532 63.9865 79.6225 63.9865 79.9597V82.1111C63.9865 82.4483 63.8921 82.7176 63.7059 82.9189C63.5198 83.1201 63.2707 83.2195 62.964 83.2195ZM62.964 84.9866C63.5801 84.9866 64.1228 84.8637 64.5869 84.618C65.0535 84.3723 65.4153 84.0298 65.6723 83.5854C65.9292 83.1437 66.0577 82.6287 66.0577 82.0431V79.978C66.0577 79.4081 65.9292 78.901 65.6723 78.4618C65.4153 78.0227 65.0535 77.6828 64.5869 77.4397C64.1202 77.1992 63.5801 77.0764 62.964 77.0764C62.3478 77.0764 61.8156 77.1966 61.3515 77.4397C60.8849 77.6802 60.5231 78.0227 60.2661 78.4618C60.0092 78.901 59.8807 79.4055 59.8807 79.978V82.0431C59.8807 82.6287 60.0092 83.1437 60.2661 83.5854C60.5231 84.0272 60.8849 84.3723 61.3515 84.618C61.8182 84.8637 62.3557 84.9866 62.964 84.9866ZM56.5982 77.3352V80.0251C56.5982 80.0617 56.5799 80.08 56.5431 80.08H54.8259C54.7892 80.08 54.7708 80.0617 54.7708 80.0251V77.3352C54.7708 77.2829 54.7551 77.2437 54.7262 77.2149C54.6974 77.1862 54.6554 77.1705 54.6056 77.1705H52.8648C52.8123 77.1705 52.773 77.1862 52.7442 77.2149C52.7153 77.2437 52.6996 77.2855 52.6996 77.3352V84.6912C52.6996 84.7435 52.7153 84.7827 52.7442 84.8115C52.773 84.8402 52.8123 84.8559 52.8648 84.8559H54.6056C54.6554 84.8559 54.6974 84.8402 54.7262 84.8115C54.7551 84.7827 54.7708 84.7409 54.7708 84.6912V81.902C54.7708 81.8654 54.7892 81.8471 54.8259 81.8471H56.5431C56.5799 81.8471 56.5982 81.8654 56.5982 81.902V84.6912C56.5982 84.7435 56.6139 84.7827 56.6428 84.8115C56.6716 84.8402 56.7109 84.8559 56.7634 84.8559H58.5043C58.5541 84.8559 58.596 84.8402 58.6249 84.8115C58.6537 84.7827 58.6694 84.7409 58.6694 84.6912V77.3352C58.6694 77.2829 58.6537 77.2437 58.6249 77.2149C58.596 77.1862 58.5541 77.1705 58.5043 77.1705H56.7634C56.7109 77.1705 56.6716 77.1862 56.6428 77.2149C56.6139 77.2437 56.5982 77.2855 56.5982 77.3352ZM45.4791 79.2931C44.884 79.2931 44.4409 79.4866 44.1473 79.8708C44.1394 79.8917 44.1289 79.8996 44.1158 79.8917C44.1001 79.8839 44.0948 79.8708 44.0948 79.8499V79.5075C44.0948 79.4709 44.0817 79.4421 44.0581 79.416C44.0319 79.3898 44.0031 79.3794 43.9664 79.3794H42.9779C42.9412 79.3794 42.9124 79.3924 42.8862 79.416C42.86 79.4421 42.8495 79.4709 42.8495 79.5075V84.7278C42.8495 84.7644 42.8626 84.7932 42.8862 84.8193C42.9124 84.8454 42.9412 84.8559 42.9779 84.8559H43.9664C44.0031 84.8559 44.0319 84.8428 44.0581 84.8193C44.0843 84.7932 44.0948 84.7644 44.0948 84.7278V81.4576C44.0948 81.1282 44.1892 80.8642 44.3806 80.6655C44.5694 80.4668 44.8184 80.3649 45.1278 80.3649C45.4372 80.3649 45.6836 80.4668 45.8698 80.6707C46.0559 80.8746 46.1503 81.1413 46.1503 81.468V84.7252C46.1503 84.7618 46.1634 84.7905 46.187 84.8167C46.2132 84.8428 46.2421 84.8533 46.2788 84.8533H47.2672C47.3039 84.8533 47.3327 84.8402 47.359 84.8167C47.3852 84.7905 47.3957 84.7618 47.3957 84.7252V81.2092C47.3957 80.6158 47.2226 80.1479 46.8739 79.8055C46.5252 79.463 46.0612 79.2905 45.4818 79.2905M39.0741 83.9514C38.8093 83.9514 38.5917 83.8887 38.4239 83.7632C38.2561 83.6377 38.1722 83.4626 38.1722 83.2325C38.1722 82.9685 38.2823 82.7646 38.4999 82.6208C38.7175 82.4771 39.0164 82.4065 39.3966 82.4065H40.2985C40.3352 82.4065 40.3535 82.4248 40.3535 82.4588V82.9633C40.3535 83.2482 40.2277 83.4861 39.976 83.6717C39.7243 83.8573 39.4228 83.9514 39.0741 83.9514ZM39.331 79.2905C38.707 79.2905 38.1905 79.429 37.7789 79.7088C37.3673 79.9885 37.1313 80.344 37.0736 80.7805C37.0658 80.8093 37.0736 80.8328 37.0999 80.8511C37.1261 80.8694 37.1549 80.8825 37.1916 80.8877L38.2351 81.0158C38.3137 81.0315 38.3636 80.9949 38.3845 80.9086C38.4265 80.7361 38.534 80.6028 38.7018 80.506C38.8696 80.4093 39.0898 80.3623 39.3625 80.3623C39.6928 80.3623 39.9393 80.4381 40.1044 80.5923C40.2696 80.7465 40.3509 80.9609 40.3509 81.2406V81.4968C40.3509 81.5334 40.3325 81.5491 40.2958 81.5491H39.1449C38.4343 81.5491 37.8864 81.7059 37.4957 82.0144C37.1051 82.3254 36.9085 82.7594 36.9085 83.3162C36.9085 83.873 37.0815 84.2573 37.4302 84.5265C37.7763 84.7984 38.2194 84.9343 38.7568 84.9343C39.4228 84.9343 39.9314 84.7409 40.2827 84.3566C40.2958 84.3435 40.3116 84.3357 40.3247 84.3409C40.3378 84.3435 40.3456 84.3566 40.3456 84.3775V84.72C40.3456 84.7566 40.3588 84.7853 40.3823 84.8115C40.4086 84.8376 40.4374 84.848 40.4741 84.848H41.4625C41.4992 84.848 41.5281 84.835 41.5543 84.8115C41.5805 84.7853 41.591 84.7566 41.591 84.72V81.1073C41.591 80.757 41.4966 80.4459 41.3105 80.1688C41.1243 79.8943 40.8595 79.6774 40.5161 79.5205C40.1726 79.3637 39.7741 79.2853 39.3231 79.2853M33.7125 80.357C33.9983 80.357 34.2368 80.4276 34.4282 80.5714C34.617 80.7152 34.7455 80.9138 34.811 81.1726C34.8399 81.2667 34.8608 81.4027 34.8766 81.5804C34.8766 81.617 34.8582 81.6327 34.8215 81.6327H32.6402C32.5982 81.6327 32.5825 81.6144 32.5982 81.5804C32.6113 81.387 32.6402 81.2301 32.6847 81.1099C32.7555 80.8746 32.8787 80.6917 33.0544 80.5583C33.2301 80.425 33.4503 80.3597 33.7151 80.3597M36.1009 81.4968C35.9227 80.0251 35.1256 79.2879 33.7151 79.2879C33.1567 79.2879 32.6769 79.4317 32.281 79.7218C31.8825 80.012 31.6124 80.4067 31.4682 80.906C31.3817 81.1622 31.3397 81.4994 31.3397 81.9124C31.3397 82.5973 31.421 83.1332 31.5862 83.5201C31.7645 83.9697 32.0503 84.32 32.4409 84.571C32.8315 84.8219 33.3061 84.9474 33.8645 84.9474C34.3155 84.9474 34.7271 84.8611 35.0942 84.6912C35.4638 84.5187 35.7601 84.2782 35.9803 83.9619C36.0223 83.8965 36.0118 83.8416 35.9489 83.7893L35.2829 83.243C35.262 83.2221 35.2357 83.2116 35.2069 83.2116C35.165 83.2116 35.1283 83.2325 35.0994 83.277C34.8136 83.6769 34.4256 83.8782 33.9379 83.8782C33.272 83.8704 32.8525 83.6116 32.6795 83.0966C32.6375 83.0103 32.6035 82.8509 32.5825 82.6156C32.5825 82.579 32.6008 82.5607 32.6375 82.5607H36.0013C36.0878 82.5607 36.1298 82.5189 36.1298 82.4326L36.1403 82.1006C36.1403 81.8784 36.1245 81.6798 36.0983 81.4994M28.7127 83.4181C28.5187 83.7188 28.2329 83.8678 27.8527 83.8678C27.5014 83.8678 27.234 83.7109 27.0452 83.3972C26.8669 83.1045 26.7778 82.6757 26.7778 82.1111C26.7778 81.5465 26.8591 81.1465 27.0243 80.8668C27.2104 80.5243 27.4909 80.3518 27.8632 80.3518C28.2722 80.3518 28.5764 80.527 28.7782 80.8773C28.9513 81.1779 29.0352 81.5883 29.0352 82.1111C29.0352 82.6339 28.9277 83.0888 28.7127 83.4181ZM30.1101 80.7936C29.9528 80.3231 29.6985 79.9545 29.3472 79.6905C28.9958 79.4264 28.5659 79.2931 28.0572 79.2931C27.5486 79.2931 27.137 79.4787 26.8198 79.8499C26.8066 79.8708 26.7909 79.8787 26.7778 79.8708C26.7621 79.863 26.7568 79.8499 26.7568 79.829V79.5075C26.7568 79.4709 26.7437 79.4421 26.7201 79.416C26.6939 79.3898 26.6651 79.3794 26.6284 79.3794H25.6399C25.6032 79.3794 25.5744 79.3924 25.5482 79.416C25.522 79.4421 25.5115 79.4709 25.5115 79.5075V86.7537C25.5115 86.7903 25.5246 86.8191 25.5482 86.8452C25.5744 86.8687 25.6032 86.8818 25.6399 86.8818H26.6284C26.6651 86.8818 26.6939 86.8687 26.7201 86.8452C26.7463 86.8191 26.7568 86.7903 26.7568 86.7537V84.4272C26.7568 84.4063 26.7647 84.3906 26.7778 84.3854C26.7935 84.3775 26.8066 84.3827 26.8198 84.3958C27.1291 84.7592 27.5355 84.9422 28.0441 84.9422C28.5528 84.9422 29.0142 84.8088 29.3603 84.5448C29.7064 84.2808 29.9607 83.9122 30.118 83.4417C30.2386 83.0783 30.3015 82.6418 30.3015 82.1346C30.3015 81.6275 30.236 81.1596 30.1075 80.7962M21.8095 83.873C21.5289 83.873 21.2904 83.7972 21.0937 83.6482C20.8971 83.4992 20.7581 83.2874 20.6795 83.0156C20.6087 82.7646 20.572 82.4666 20.572 82.1163C20.572 81.766 20.6087 81.4654 20.6795 81.2171C20.766 80.9452 20.905 80.7361 21.099 80.5897C21.293 80.4433 21.5211 80.3701 21.7859 80.3701C22.0664 80.3701 22.3024 80.4433 22.4964 80.5897C22.6904 80.7361 22.8267 80.9452 22.9054 81.2171C22.9762 81.4314 23.0129 81.7321 23.0129 82.1163C23.0129 82.4797 22.9762 82.7803 22.9054 83.0156C22.8189 83.2874 22.6799 83.4992 22.4912 83.6482C22.3024 83.7972 22.0743 83.873 21.8095 83.873ZM21.8095 84.9448C22.3601 84.9448 22.8372 84.801 23.2384 84.5108C23.6395 84.2207 23.9227 83.8233 24.0878 83.3162C24.2111 82.9528 24.2714 82.545 24.2714 82.0954C24.2714 81.6458 24.2058 81.2171 24.0773 80.8746C23.9122 80.3806 23.6316 79.9963 23.2331 79.7166C22.8346 79.4369 22.3627 79.2983 21.82 79.2983C21.2458 79.2983 20.7555 79.4369 20.3465 79.7166C19.9375 79.9963 19.6517 80.3858 19.4866 80.8851C19.3712 81.2432 19.3135 81.6484 19.3135 82.1059C19.3135 82.5346 19.3738 82.9424 19.4971 83.3267C19.6622 83.8338 19.9454 84.2311 20.3518 84.5161C20.7555 84.801 21.2432 84.9448 21.8095 84.9448ZM18.0996 79.3192C17.5622 79.3192 17.1427 79.5519 16.8412 80.0146C16.8254 80.0355 16.8149 80.046 16.8045 80.0407C16.794 80.0355 16.7887 80.0198 16.7887 79.9911V79.5101C16.7887 79.4735 16.7756 79.4447 16.752 79.4186C16.7258 79.3924 16.697 79.382 16.6603 79.382H15.6718C15.6351 79.382 15.6063 79.3951 15.5801 79.4186C15.5539 79.4447 15.5434 79.4735 15.5434 79.5101V84.7304C15.5434 84.767 15.5565 84.7958 15.5801 84.8219C15.6063 84.848 15.6351 84.8585 15.6718 84.8585H16.6603C16.697 84.8585 16.7258 84.8454 16.752 84.8219C16.7756 84.7958 16.7887 84.767 16.7887 84.7304V81.6981C16.7887 81.3844 16.8884 81.1282 17.0902 80.9321C17.2895 80.7361 17.5412 80.6315 17.8427 80.6158C17.8925 80.608 17.9659 80.6054 18.0577 80.6054C18.2019 80.6054 18.3277 80.6237 18.4352 80.6577C18.527 80.6943 18.5794 80.6681 18.5847 80.5819L18.7682 79.6173C18.7839 79.5388 18.7603 79.4839 18.7026 79.4552C18.5296 79.3637 18.3303 79.3166 18.0996 79.3166M12.9714 79.5101V82.7672C12.9714 83.1018 12.8744 83.3711 12.6804 83.5724C12.4863 83.7737 12.2294 83.873 11.9069 83.873C11.5844 83.873 11.3459 83.7737 11.1702 83.5724C10.9945 83.3737 10.908 83.1044 10.908 82.7672V79.5101C10.908 79.4735 10.8949 79.4447 10.8713 79.4186C10.8477 79.3924 10.8163 79.382 10.7796 79.382H9.79113C9.75443 79.382 9.72559 79.3951 9.69937 79.4186C9.67315 79.4447 9.66266 79.4735 9.66266 79.5101V83.1228C9.66266 83.7005 9.84619 84.1475 10.2159 84.4612C10.5855 84.7749 11.0417 84.9317 11.5871 84.9317C12.1744 84.9317 12.6148 84.7435 12.9085 84.3644C12.9216 84.3435 12.9373 84.3357 12.9504 84.3435C12.9635 84.3514 12.9714 84.3644 12.9714 84.3854V84.7278C12.9714 84.7644 12.9845 84.7932 13.0081 84.8193C13.0317 84.8454 13.0631 84.8559 13.0998 84.8559H14.0778C14.1145 84.8559 14.1433 84.8428 14.1695 84.8193C14.1958 84.7958 14.2062 84.7644 14.2062 84.7278V79.5075C14.2062 79.4709 14.1931 79.4421 14.1695 79.416C14.1459 79.3898 14.1145 79.3794 14.0778 79.3794H13.0998C13.0631 79.3794 13.0343 79.3924 13.0081 79.416C12.9819 79.4395 12.9714 79.4709 12.9714 79.5075M8.57461 78.2971V77.4815C8.57461 77.4449 8.5615 77.4162 8.53791 77.3901C8.51169 77.3639 8.48285 77.3535 8.44615 77.3535H3.6194C3.5827 77.3535 3.55386 77.3665 3.52764 77.3901C3.50142 77.4162 3.49093 77.4449 3.49093 77.4815V84.7278C3.49093 84.7644 3.50404 84.7932 3.52764 84.8193C3.55386 84.8454 3.5827 84.8559 3.6194 84.8559H8.45663C8.49334 84.8559 8.52218 84.8428 8.5484 84.8193C8.57461 84.7932 8.5851 84.7644 8.5851 84.7278V83.9122C8.5851 83.8756 8.57199 83.8468 8.5484 83.8207C8.52218 83.7946 8.49334 83.7841 8.45663 83.7841H4.79135C4.75464 83.7841 4.73629 83.7658 4.73629 83.7318V81.6641C4.73629 81.6275 4.75464 81.6118 4.79135 81.6118H7.25322C7.28993 81.6118 7.31877 81.5987 7.34499 81.5752C7.3712 81.5491 7.38169 81.5203 7.38169 81.4837V80.6681C7.38169 80.6315 7.36858 80.6028 7.34499 80.5766C7.31877 80.5505 7.28993 80.54 7.25322 80.54H4.79135C4.75464 80.54 4.73629 80.5217 4.73629 80.4877V78.4827C4.73629 78.4461 4.75464 78.4278 4.79135 78.4278H8.45663C8.49334 78.4278 8.52218 78.4148 8.5484 78.3913C8.57461 78.3651 8.5851 78.3364 8.5851 78.2998" fill="#84134F"/>
</g>
</g>
<defs>
<clipPath id="clip0_110_14">
<rect width="120" height="96.2376" fill="white"/>
</clipPath>
</defs>
</svg>
